<svg version="1.1" xmlns="http://www.w3.org/2000/svg" viewBox="0 0 1422.7753879411348 807.804382207958" width="1422.7753879411348" height="807.804382207958">
  <!-- svg-source:excalidraw -->
  
  <defs>
    <style class="style-fonts">
      @font-face {
        font-family: "Virgil";
        src: url("https://excalidraw.com/Virgil.woff2");
      }
      @font-face {
        font-family: "Cascadia";
        src: url("https://excalidraw.com/Cascadia.woff2");
      }
    </style>
  </defs>
  <g transform="translate(621.1515088940034 10) rotate(0 48.5 23)"><text x="0" y="33" font-family="Virgil, Segoe UI Emoji" font-size="36px" fill="#000000" text-anchor="start" style="white-space: pre;" direction="ltr">Akụkọ</text></g><g transform="translate(10.647596441589485 117.44263388902252) rotate(0 168.5 60)"><text x="0" y="14" font-family="Virgil, Segoe UI Emoji" font-size="16px" fill="#000000" text-anchor="start" style="white-space: pre;" direction="ltr">Tech Stack</text><text x="0" y="34" font-family="Virgil, Segoe UI Emoji" font-size="16px" fill="#000000" text-anchor="start" style="white-space: pre;" direction="ltr">- Serverless</text><text x="0" y="54" font-family="Virgil, Segoe UI Emoji" font-size="16px" fill="#000000" text-anchor="start" style="white-space: pre;" direction="ltr">- Typescript/Node.js</text><text x="0" y="74" font-family="Virgil, Segoe UI Emoji" font-size="16px" fill="#000000" text-anchor="start" style="white-space: pre;" direction="ltr">- Svelte (Frontend)</text><text x="0" y="94" font-family="Virgil, Segoe UI Emoji" font-size="16px" fill="#000000" text-anchor="start" style="white-space: pre;" direction="ltr">- Cloudflare Workers (Backend/TypeScript)</text><text x="0" y="114" font-family="Virgil, Segoe UI Emoji" font-size="16px" fill="#000000" text-anchor="start" style="white-space: pre;" direction="ltr">- PlanetScale (MySQL Database) </text></g><g stroke-linecap="round" transform="translate(35.7861128559922 382.12434178979606) rotate(0 77.99331949446741 71.78648606729132)"><path d="M32 0 M32 0 C63.21 0.79, 96.37 0.75, 123.99 0 M32 0 C53.4 -0.22, 76.04 0.49, 123.99 0 M123.99 0 C146.9 1.85, 156.92 9.97, 155.99 32 M123.99 0 C143.21 2.12, 156.74 12.67, 155.99 32 M155.99 32 C154.57 62.34, 156.74 93.75, 155.99 111.57 M155.99 32 C157.09 54.85, 156.95 77.81, 155.99 111.57 M155.99 111.57 C154.55 133.16, 144.71 144.35, 123.99 143.57 M155.99 111.57 C157.72 131.06, 143.55 142.96, 123.99 143.57 M123.99 143.57 C95.32 141.19, 64.47 144.21, 32 143.57 M123.99 143.57 C88.02 144.77, 50.74 143.36, 32 143.57 M32 143.57 C12.25 144.94, 1.24 131.28, 0 111.57 M32 143.57 C10.35 143.32, 0.5 134.4, 0 111.57 M0 111.57 C1.67 83.79, 1.09 59.58, 0 32 M0 111.57 C-0.54 89.59, 0.97 67.11, 0 32 M0 32 C-0.71 10.03, 10.06 -1.54, 32 0 M0 32 C0.67 9.47, 12.7 -0.86, 32 0" stroke="#000000" stroke-width="1" fill="none"></path></g><g transform="translate(79.27943235045962 443.9108278570868) rotate(0 34.5 10)"><text x="34.5" y="14" font-family="Virgil, Segoe UI Emoji" font-size="16px" fill="#000000" text-anchor="middle" style="white-space: pre;" direction="ltr">Frontend</text></g><g stroke-linecap="round" transform="translate(701.7325220137359 376.7066789180626) rotate(0 77.99331949446741 71.78648606729132)"><path d="M32 0 M32 0 C65.5 -0.07, 98.57 0.82, 123.99 0 M32 0 C56 1.07, 79.25 0.99, 123.99 0 M123.99 0 C146.46 -0.42, 154.9 10.02, 155.99 32 M123.99 0 C146.25 0.76, 153.8 10.57, 155.99 32 M155.99 32 C155.01 62.93, 153.86 89.3, 155.99 111.57 M155.99 32 C155.07 57.02, 154.89 81.3, 155.99 111.57 M155.99 111.57 C155.02 134.15, 144.86 143.33, 123.99 143.57 M155.99 111.57 C157.91 132.11, 144.07 142.9, 123.99 143.57 M123.99 143.57 C87.88 142.4, 49.97 144.89, 32 143.57 M123.99 143.57 C104.32 143.18, 85.67 143.91, 32 143.57 M32 143.57 C9.52 142.4, -1.16 132.95, 0 111.57 M32 143.57 C9.1 143.87, 1.36 132.62, 0 111.57 M0 111.57 C0.45 94.85, 0.03 74.62, 0 32 M0 111.57 C-0.55 87.65, 0.1 62.28, 0 32 M0 32 C-0.95 11.59, 9.25 -1.47, 32 0 M0 32 C-0.96 10.78, 9.01 -1.85, 32 0" stroke="#000000" stroke-width="1" fill="none"></path></g><g transform="translate(732.7258415082033 438.4931649853536) rotate(0 47 10)"><text x="47" y="14" font-family="Virgil, Segoe UI Emoji" font-size="16px" fill="#000000" text-anchor="middle" style="white-space: pre;" direction="ltr">PlanetScale</text></g><g stroke-linecap="round" transform="translate(10 347.9811510447296) rotate(0 104.99052179966401 96.9978921244703)"><path d="M32 0 M32 0 C68.73 0.4, 102.38 2.02, 177.98 0 M32 0 C76.5 -1.14, 121.43 -0.51, 177.98 0 M177.98 0 C200.32 -1.79, 211.31 10.07, 209.98 32 M177.98 0 C199.73 1.83, 208.4 8.88, 209.98 32 M209.98 32 C207.89 83.23, 208.85 133.28, 209.98 162 M209.98 32 C210.22 68.52, 209.23 105.12, 209.98 162 M209.98 162 C211.07 184.72, 197.33 194.81, 177.98 194 M209.98 162 C210.79 181.55, 198.89 193.12, 177.98 194 M177.98 194 C137.7 195.5, 96.7 194.45, 32 194 M177.98 194 C120.69 194.08, 65.12 193.15, 32 194 M32 194 C9.09 194.63, 0.94 183.68, 0 162 M32 194 C8.73 196.13, 0.81 181.76, 0 162 M0 162 C1.3 125.72, -2.34 90.98, 0 32 M0 162 C0.26 125.87, 1.51 90.83, 0 32 M0 32 C0.11 10.39, 9.45 1.68, 32 0 M0 32 C0.08 10.4, 12.35 -0.77, 32 0" stroke="#000000" stroke-width="1" fill="none"></path></g><g transform="translate(48.29790038331157 354.78813145522736) rotate(0 68.5 10)"><text x="68.5" y="14" font-family="Virgil, Segoe UI Emoji" font-size="16px" fill="#000000" text-anchor="middle" style="white-space: pre;" direction="ltr">Cloudflare Pages</text></g><g stroke-linecap="round" transform="translate(359.566111239712 382.27432624704693) rotate(0 77.99331949446741 71.78648606729132)"><path d="M32 0 M32 0 C58.18 0.31, 86.92 -0.34, 123.99 0 M32 0 C52.76 -0.26, 74.3 -1.33, 123.99 0 M123.99 0 C145.25 1.29, 156.71 11.04, 155.99 32 M123.99 0 C145.77 0.58, 154.53 11.69, 155.99 32 M155.99 32 C155.4 59.3, 155.08 88.58, 155.99 111.57 M155.99 32 C156.51 50.79, 155.84 70.69, 155.99 111.57 M155.99 111.57 C156.47 134.33, 145.65 143.68, 123.99 143.57 M155.99 111.57 C157.41 134.18, 144.56 141.95, 123.99 143.57 M123.99 143.57 C102.59 145.8, 82.26 143.81, 32 143.57 M123.99 143.57 C87.77 143.74, 54.16 144.04, 32 143.57 M32 143.57 C9.32 142.35, -1.31 134.35, 0 111.57 M32 143.57 C8.38 144.44, 0.44 132.37, 0 111.57 M0 111.57 C-1.06 84.99, 1.64 55.37, 0 32 M0 111.57 C-0.8 86.88, -0.28 64.14, 0 32 M0 32 C-1.16 9.57, 11.32 0.53, 32 0 M0 32 C-1.81 9.26, 11.66 0.92, 32 0" stroke="#000000" stroke-width="1" fill="none"></path></g><g transform="translate(364.0594307341794 434.0608123143379) rotate(0 73.5 20)"><text x="73.5" y="14" font-family="Virgil, Segoe UI Emoji" font-size="16px" fill="#000000" text-anchor="middle" style="white-space: pre;" direction="ltr">Serverless </text><text x="73.5" y="34" font-family="Virgil, Segoe UI Emoji" font-size="16px" fill="#000000" text-anchor="middle" style="white-space: pre;" direction="ltr">Rest-API</text></g><g stroke-linecap="round" transform="translate(333.42115706543666 349.1291629184552) rotate(0 104.99052179966401 96.9978921244703)"><path d="M32 0 M32 0 C61.05 -0.8, 90.41 0.29, 177.98 0 M32 0 C89.41 -1.35, 146.72 -0.22, 177.98 0 M177.98 0 C200.04 0.37, 210.37 11.17, 209.98 32 M177.98 0 C197.86 1.02, 211.45 11.65, 209.98 32 M209.98 32 C208.13 76.37, 208.18 123.83, 209.98 162 M209.98 32 C210.15 65.21, 210.69 98.19, 209.98 162 M209.98 162 C210.31 183.44, 200.55 195.1, 177.98 194 M209.98 162 C209.22 181.7, 197.47 193.88, 177.98 194 M177.98 194 C121.06 194.56, 68.4 195.15, 32 194 M177.98 194 C136.16 194.86, 91.77 193.72, 32 194 M32 194 C9.36 195.43, -1.99 184.08, 0 162 M32 194 C11.1 193.46, 1.28 184.32, 0 162 M0 162 C2.46 117.39, 0.49 72.7, 0 32 M0 162 C0.68 114.12, 0.11 64.79, 0 32 M0 32 C0.66 11.19, 9.1 -1.23, 32 0 M0 32 C0.99 11.58, 8.55 -1.06, 32 0" stroke="#000000" stroke-width="1" fill="none"></path></g><g transform="translate(365.21905744874823 355.936143328953) rotate(0 75 10)"><text x="75" y="14" font-family="Virgil, Segoe UI Emoji" font-size="16px" fill="#000000" text-anchor="middle" style="white-space: pre;" direction="ltr">Cloudflare Workers</text></g><g stroke-linecap="round"><g transform="translate(232.9694172524927 429.7128681792781) rotate(0 45.5346140203327 -0.3472037193476467)"><path d="M-0.25 0.37 C15.15 0.28, 76.04 0.64, 91.31 0.4 M1.83 -0.47 C17.24 -0.97, 75.99 -1.25, 90.88 -1.16" stroke="#000000" stroke-width="1" fill="none"></path></g><g transform="translate(232.9694172524927 429.7128681792781) rotate(0 45.5346140203327 -0.3472037193476467)"><path d="M63.33 10.76 C70.41 8.73, 73.99 3.59, 92.73 -2.09 M62.76 8.76 C69.47 7.28, 78.35 3.46, 91.48 -1.3" stroke="#000000" stroke-width="1" fill="none"></path></g><g transform="translate(232.9694172524927 429.7128681792781) rotate(0 45.5346140203327 -0.3472037193476467)"><path d="M63.31 -9.76 C70.56 -7.41, 74.15 -8.17, 92.73 -2.09 M62.75 -11.76 C69.46 -7.83, 78.35 -6.24, 91.48 -1.3" stroke="#000000" stroke-width="1" fill="none"></path></g></g><mask></mask><g stroke-linecap="round"><g transform="translate(555.8340899298107 438.9278010948731) rotate(0 66.74504784915456 -0.3765244313577796)"><path d="M-0.11 -0.5 C22.5 -0.66, 112.46 -0.33, 135.11 -0.56 M-1.62 -1.81 C20.86 -1.78, 111.3 0.94, 134.13 1.05" stroke="#000000" stroke-width="1" fill="none"></path></g><g transform="translate(555.8340899298107 438.9278010948731) rotate(0 66.74504784915456 -0.3765244313577796)"><path d="M104.92 10.68 C113.26 9.36, 118.42 5.14, 135.58 2.05 M105.39 10.47 C113.15 8.67, 119.2 5.76, 134.35 1.98" stroke="#000000" stroke-width="1" fill="none"></path></g><g transform="translate(555.8340899298107 438.9278010948731) rotate(0 66.74504784915456 -0.3765244313577796)"><path d="M105.31 -9.84 C113.61 -5.88, 118.67 -4.82, 135.58 2.05 M105.78 -10.05 C113.48 -7.08, 119.44 -5.23, 134.35 1.98" stroke="#000000" stroke-width="1" fill="none"></path></g></g><mask></mask><g stroke-linecap="round"><g transform="translate(687.6325813082328 469.3452097149543) rotate(0 -67.17662697566334 -0.9033838606085283)"><path d="M1.14 -0.15 C-21.52 -0.57, -112.06 -1.65, -134.95 -1.66 M0.28 -1.27 C-22.56 -1.63, -112.58 -0.4, -135.49 -0.55" stroke="#000000" stroke-width="1" fill="none"></path></g><g transform="translate(687.6325813082328 469.3452097149543) rotate(0 -67.17662697566334 -0.9033838606085283)"><path d="M-107.6 -9.65 C-119.44 -7.46, -127.78 -2.89, -134.37 -1.6 M-106.95 -11.75 C-115.58 -7.93, -123.13 -5.69, -135.54 -0.35" stroke="#000000" stroke-width="1" fill="none"></path></g><g transform="translate(687.6325813082328 469.3452097149543) rotate(0 -67.17662697566334 -0.9033838606085283)"><path d="M-107.51 10.87 C-119.53 5.2, -127.9 1.9, -134.37 -1.6 M-106.86 8.77 C-115.67 6.81, -123.25 3.28, -135.54 -0.35" stroke="#000000" stroke-width="1" fill="none"></path></g></g><mask></mask><g stroke-linecap="round"><g transform="translate(321.0341229651759 476.6986532919566) rotate(0 -42.12063910337503 -0.5239687117664857)"><path d="M0.99 -0.74 C-13.21 -0.82, -70.37 -0.53, -84.5 -0.71 M0.05 1.49 C-14.33 1.06, -71.23 -2.16, -85.23 -2.53" stroke="#000000" stroke-width="1" fill="none"></path></g><g transform="translate(321.0341229651759 476.6986532919566) rotate(0 -42.12063910337503 -0.5239687117664857)"><path d="M-57.85 -10.87 C-65.84 -6.2, -77.78 -4.16, -85.93 -1.02 M-56.78 -11.21 C-61.95 -9.92, -68.17 -8.89, -84.37 -2.78" stroke="#000000" stroke-width="1" fill="none"></path></g><g transform="translate(321.0341229651759 476.6986532919566) rotate(0 -42.12063910337503 -0.5239687117664857)"><path d="M-58.74 9.63 C-66.38 7.02, -78 1.79, -85.93 -1.02 M-57.67 9.29 C-62.72 6.43, -68.76 3.3, -84.37 -2.78" stroke="#000000" stroke-width="1" fill="none"></path></g></g><mask></mask><g transform="translate(413.6938945278737 299.8209304585514) rotate(0 34 10)"><text x="34" y="14" font-family="Virgil, Segoe UI Emoji" font-size="16px" fill="#000000" text-anchor="middle" style="white-space: pre;" direction="ltr">Workflow</text></g><g stroke-linecap="round" transform="translate(1165.6143606429005 194.37629719358281) rotate(0 109.03309352594567 45.95271459871543)"><path d="M22.98 0 M22.98 0 C88.65 -1.7, 155.16 -0.78, 195.09 0 M22.98 0 C84.52 -1.37, 146.71 -0.59, 195.09 0 M195.09 0 C208.56 -1.69, 217.65 7, 218.07 22.98 M195.09 0 C209.67 0.56, 216.57 8.03, 218.07 22.98 M218.07 22.98 C218.95 36.24, 220.25 48.46, 218.07 68.93 M218.07 22.98 C217.5 36.53, 217.51 51.28, 218.07 68.93 M218.07 68.93 C216.62 85.76, 209.81 91.57, 195.09 91.91 M218.07 68.93 C217.88 86.24, 210.08 91.85, 195.09 91.91 M195.09 91.91 C149.26 93.49, 100.83 92.23, 22.98 91.91 M195.09 91.91 C159.87 91.44, 125.1 92.4, 22.98 91.91 M22.98 91.91 C5.75 93.74, -1.73 83.48, 0 68.93 M22.98 91.91 C6.22 93.07, -0.77 85.05, 0 68.93 M0 68.93 C-1.11 61.06, 0.99 49.38, 0 22.98 M0 68.93 C0.32 53.15, -0.53 39.48, 0 22.98 M0 22.98 C-1.31 5.81, 6.02 0.75, 22.98 0 M0 22.98 C-1.23 6.92, 7.04 -1.68, 22.98 0" stroke="#000000" stroke-width="1" fill="none"></path></g><g stroke-linecap="round" transform="translate(1145.3594502945055 159.47337209496422) rotate(0 131.51674487461412 77.51953681642186)"><path d="M32 0 M32 0 C83.51 3.29, 133.84 -0.59, 231.03 0 M32 0 C103.87 1.73, 174.76 1.01, 231.03 0 M231.03 0 C251.64 1.51, 263.65 9.85, 263.03 32 M231.03 0 C253.65 1.7, 261.72 12.21, 263.03 32 M263.03 32 C264.42 65.1, 262.04 100.15, 263.03 123.04 M263.03 32 C262.83 64.84, 262.29 100.12, 263.03 123.04 M263.03 123.04 C264.78 143.64, 253.6 155.1, 231.03 155.04 M263.03 123.04 C261.69 142.07, 253.44 156.17, 231.03 155.04 M231.03 155.04 C156.86 154.58, 79.35 152.31, 32 155.04 M231.03 155.04 C182.76 155.56, 135.67 155.11, 32 155.04 M32 155.04 C11.87 154.79, 0.24 144.17, 0 123.04 M32 155.04 C11.07 153.4, -0.5 145.1, 0 123.04 M0 123.04 C1.94 96.49, 1.89 73.9, 0 32 M0 123.04 C-0.67 99.04, -0.04 73, 0 32 M0 32 C0.8 12.44, 11.87 -0.2, 32 0 M0 32 C0.14 10.42, 11.25 -1.6, 32 0" stroke="#000000" stroke-width="1" fill="none"></path></g><g transform="translate(1223.8761951691197 226.99290891138608) rotate(0 53 10)"><text x="53" y="14" font-family="Virgil, Segoe UI Emoji" font-size="16px" fill="#000000" text-anchor="middle" style="white-space: pre;" direction="ltr">News Scraper</text></g><g transform="translate(1247.1199905504816 167.16343856217415) rotate(0 26.5 10)"><text x="26.5" y="14" font-family="Virgil, Segoe UI Emoji" font-size="16px" fill="#000000" text-anchor="middle" style="white-space: pre;" direction="ltr">Worker</text></g><g stroke-linecap="round" transform="translate(1169.9968085403018 427.33780717033744) rotate(0 109.03309352594567 45.95271459871543)"><path d="M22.98 0 M22.98 0 C84.66 1.95, 148.13 2, 195.09 0 M22.98 0 C76.23 -1.01, 131.57 -0.21, 195.09 0 M195.09 0 C211.91 0.31, 219.58 8.91, 218.07 22.98 M195.09 0 C211.44 -0.35, 217.04 8.05, 218.07 22.98 M218.07 22.98 C220.1 34.64, 218.43 49.2, 218.07 68.93 M218.07 22.98 C217.76 39.94, 217.17 56.88, 218.07 68.93 M218.07 68.93 C219.79 82.34, 211.5 92.04, 195.09 91.91 M218.07 68.93 C216.57 84.73, 208.47 90.21, 195.09 91.91 M195.09 91.91 C133.37 90.77, 74.01 88.73, 22.98 91.91 M195.09 91.91 C152.36 91.58, 110.46 90.68, 22.98 91.91 M22.98 91.91 C6.18 90.8, -1.33 82.38, 0 68.93 M22.98 91.91 C7.77 90.24, 0.69 84.17, 0 68.93 M0 68.93 C0.45 60.6, 0.95 49.2, 0 22.98 M0 68.93 C0.91 57.7, 0.82 49.18, 0 22.98 M0 22.98 C0.63 9.36, 7.61 0.69, 22.98 0 M0 22.98 C0.39 5.89, 9.18 -1.96, 22.98 0" stroke="#000000" stroke-width="1" fill="none"></path></g><g stroke-linecap="round" transform="translate(1149.7418981919066 392.4348820717188) rotate(0 131.51674487461412 77.51953681642186)"><path d="M32 0 M32 0 C91.73 0.06, 148.24 -1.11, 231.03 0 M32 0 C92.93 1.72, 154.06 2.01, 231.03 0 M231.03 0 C253.88 1.26, 263.93 10.36, 263.03 32 M231.03 0 C251.34 0.39, 262.85 12.12, 263.03 32 M263.03 32 C263.91 50.85, 265.18 69.33, 263.03 123.04 M263.03 32 C262.57 56.28, 263.95 79.4, 263.03 123.04 M263.03 123.04 C264.13 144.51, 251.07 155.46, 231.03 155.04 M263.03 123.04 C261.1 142.68, 253.57 154.29, 231.03 155.04 M231.03 155.04 C186.11 153.25, 139.72 153.9, 32 155.04 M231.03 155.04 C177.52 154.64, 122.23 154.82, 32 155.04 M32 155.04 C9.34 153.17, 0.1 142.92, 0 123.04 M32 155.04 C11.36 154.96, -1.86 145.87, 0 123.04 M0 123.04 C0.91 99.59, -1.87 74.25, 0 32 M0 123.04 C-0.03 102.95, -0.29 82.1, 0 32 M0 32 C-0.05 11.35, 11 -1.54, 32 0 M0 32 C1.52 8.71, 10.54 -1.54, 32 0" stroke="#000000" stroke-width="1" fill="none"></path></g><g transform="translate(1228.2586430665208 459.9544188881406) rotate(0 53 10)"><text x="53" y="14" font-family="Virgil, Segoe UI Emoji" font-size="16px" fill="#000000" text-anchor="middle" style="white-space: pre;" direction="ltr">News Scraper</text></g><g transform="translate(1251.5024384478827 400.12494853892883) rotate(0 26.5 10)"><text x="26.5" y="14" font-family="Virgil, Segoe UI Emoji" font-size="16px" fill="#000000" text-anchor="middle" style="white-space: pre;" direction="ltr">Worker</text></g><g stroke-linecap="round" transform="translate(1169.7000343504035 677.6682336737331) rotate(0 109.03309352594567 45.95271459871543)"><path d="M22.98 0 M22.98 0 C75.78 0.66, 130.27 -1.01, 195.09 0 M22.98 0 C68.84 1.47, 115.46 0.88, 195.09 0 M195.09 0 C210.62 1.72, 216.16 8.75, 218.07 22.98 M195.09 0 C210.57 -1.49, 218.55 5.72, 218.07 22.98 M218.07 22.98 C216.84 32.3, 218.44 44, 218.07 68.93 M218.07 22.98 C217.54 32.21, 217.99 42.27, 218.07 68.93 M218.07 68.93 C216.6 82.77, 209.3 90.58, 195.09 91.91 M218.07 68.93 C215.91 84.36, 208.74 92.59, 195.09 91.91 M195.09 91.91 C143.26 93.78, 94.69 94.28, 22.98 91.91 M195.09 91.91 C139.18 91.66, 83.73 91.57, 22.98 91.91 M22.98 91.91 C9.27 92.54, 1.7 84.19, 0 68.93 M22.98 91.91 C8.45 92.29, -1.77 85.77, 0 68.93 M0 68.93 C-0.3 58.07, -1.84 48.83, 0 22.98 M0 68.93 C0.07 55.08, -0.63 41.91, 0 22.98 M0 22.98 C0.97 8.19, 6.54 -1.43, 22.98 0 M0 22.98 C1.72 8.58, 9.47 -2.11, 22.98 0" stroke="#000000" stroke-width="1" fill="none"></path></g><g stroke-linecap="round" transform="translate(1149.4451240020087 642.7653085751143) rotate(0 131.51674487461412 77.51953681642186)"><path d="M32 0 M32 0 C102.49 -1.66, 175.89 -0.38, 231.03 0 M32 0 C75.54 -0.65, 119.08 0.73, 231.03 0 M231.03 0 C250.46 1.1, 263.17 9.37, 263.03 32 M231.03 0 C252.85 -1.94, 261.34 11.87, 263.03 32 M263.03 32 C262.5 56.57, 260.45 79.67, 263.03 123.04 M263.03 32 C262.94 54.08, 262.04 74.37, 263.03 123.04 M263.03 123.04 C261.93 143.04, 250.5 155.14, 231.03 155.04 M263.03 123.04 C261.37 145.06, 252.29 153.18, 231.03 155.04 M231.03 155.04 C160.1 157.04, 86.1 154.26, 32 155.04 M231.03 155.04 C180.92 156.94, 133.53 156.68, 32 155.04 M32 155.04 C12.36 154.99, 0.69 144.71, 0 123.04 M32 155.04 C8.9 156.56, -1.96 144.25, 0 123.04 M0 123.04 C-1.71 101.49, -0.07 80.12, 0 32 M0 123.04 C-0.71 98.36, 0.53 74.84, 0 32 M0 32 C-1.12 9.24, 12.16 0.8, 32 0 M0 32 C1.81 8.55, 9.76 -2.19, 32 0" stroke="#000000" stroke-width="1" fill="none"></path></g><g transform="translate(1227.961868876623 710.2848453915361) rotate(0 53 10)"><text x="53" y="14" font-family="Virgil, Segoe UI Emoji" font-size="16px" fill="#000000" text-anchor="middle" style="white-space: pre;" direction="ltr">News Scraper</text></g><g transform="translate(1251.2056642579848 650.4553750423247) rotate(0 26.5 10)"><text x="26.5" y="14" font-family="Virgil, Segoe UI Emoji" font-size="16px" fill="#000000" text-anchor="middle" style="white-space: pre;" direction="ltr">Worker</text></g><g stroke-linecap="round"><g transform="translate(1128.8600594638672 244.97038568974025) rotate(0 -127.93451019657743 81.69764103961649)"><path d="M-0.24 -0.22 C-42.66 27.08, -212.22 137.31, -254.61 164.77 M-1.82 -1.38 C-44.41 25.52, -213.37 135.82, -255.63 163.14" stroke="#000000" stroke-width="1" fill="none"></path></g><g transform="translate(1128.8600594638672 244.97038568974025) rotate(0 -127.93451019657743 81.69764103961649)"><path d="M-237.95 138.94 C-241.16 146.05, -246.86 152.57, -253.65 163.88 M-236.7 139.34 C-244.11 147.66, -250.11 154.97, -256.03 162.38" stroke="#000000" stroke-width="1" fill="none"></path></g><g transform="translate(1128.8600594638672 244.97038568974025) rotate(0 -127.93451019657743 81.69764103961649)"><path d="M-226.76 156.15 C-233.42 158.15, -242.43 159.58, -253.65 163.88 M-225.52 156.54 C-236.68 159.1, -246.5 160.55, -256.03 162.38" stroke="#000000" stroke-width="1" fill="none"></path></g></g><mask></mask><g stroke-linecap="round"><g transform="translate(1132.7814863893088 483.4246944675019) rotate(0 -130.81048757004476 -11.473153196560133)"><path d="M-0.46 -1.04 C-44.17 -5.07, -218.26 -20.21, -261.9 -23.98 M1.49 1.03 C-42.45 -2.86, -219.55 -18.78, -263.11 -22.68" stroke="#000000" stroke-width="1" fill="none"></path></g><g transform="translate(1132.7814863893088 483.4246944675019) rotate(0 -130.81048757004476 -11.473153196560133)"><path d="M-235.85 -31.24 C-244.4 -29.47, -253.34 -23.77, -262.88 -21.67 M-234.78 -31.08 C-243.14 -28.45, -249.52 -25.31, -263.85 -22.86" stroke="#000000" stroke-width="1" fill="none"></path></g><g transform="translate(1132.7814863893088 483.4246944675019) rotate(0 -130.81048757004476 -11.473153196560133)"><path d="M-237.68 -10.8 C-245.67 -15.73, -254.01 -16.75, -262.88 -21.67 M-236.61 -10.64 C-244.53 -13.73, -250.41 -16.29, -263.85 -22.86" stroke="#000000" stroke-width="1" fill="none"></path></g></g><mask></mask><g stroke-linecap="round"><g transform="translate(1136.0313126114281 718.8680685484876) rotate(0 -132.8276137210562 -108.04643874240895)"><path d="M0.12 0.26 C-44.01 -35.41, -221.71 -178.53, -265.77 -214.68 M-1.28 -0.64 C-44.96 -36.6, -219.69 -180.47, -263.61 -216.36" stroke="#000000" stroke-width="1" fill="none"></path></g><g transform="translate(1136.0313126114281 718.8680685484876) rotate(0 -132.8276137210562 -108.04643874240895)"><path d="M-234.87 -208.15 C-239.95 -207.77, -249.36 -209.6, -263.33 -217.49 M-234.34 -205.94 C-245.01 -210.07, -255.44 -212.68, -264.45 -215.54" stroke="#000000" stroke-width="1" fill="none"></path></g><g transform="translate(1136.0313126114281 718.8680685484876) rotate(0 -132.8276137210562 -108.04643874240895)"><path d="M-247.89 -192.29 C-250.08 -195.34, -256.68 -200.59, -263.33 -217.49 M-247.36 -190.08 C-253.36 -199.88, -259.18 -208.11, -264.45 -215.54" stroke="#000000" stroke-width="1" fill="none"></path></g></g><mask></mask></svg>